<svg width="70" height="60" viewBox="0 0 70 60" fill="none" xmlns="http://www.w3.org/2000/svg">
<g id="Group">
<path id="Vector" d="M27.6183 43.6477C27.344 43.6477 27.0787 43.5526 26.8701 43.3795L19.3919 37.1932C19.2644 37.0878 19.1621 36.9568 19.0919 36.8092C19.0217 36.6616 18.9854 36.5009 18.9854 36.3383C18.9854 36.1757 19.0217 36.0151 19.0919 35.8675C19.1621 35.7199 19.2644 35.5888 19.3919 35.4834L26.8701 29.2972C27.1034 29.1041 27.4061 29.0089 27.7116 29.0326C28.0171 29.0563 28.3003 29.197 28.4991 29.4236C28.9125 29.8961 28.8544 30.6045 28.3682 31.0061L21.9237 36.338L28.3682 41.6697C28.5484 41.8187 28.6773 42.0177 28.7373 42.2401C28.7973 42.4624 28.7856 42.6973 28.7039 42.913C28.6221 43.1287 28.4741 43.3148 28.2799 43.4462C28.0858 43.5776 27.855 43.6479 27.6183 43.6477ZM42.3811 43.6477C42.0542 43.6477 41.7293 43.5136 41.501 43.2523C41.3022 43.0256 41.2043 42.7316 41.2288 42.4348C41.2532 42.138 41.398 41.8628 41.6312 41.6697L48.0757 36.338L41.6312 31.0061C41.4063 30.8108 41.2688 30.5378 41.2483 30.2453C41.2278 29.9529 41.3258 29.6642 41.5214 29.4411C41.717 29.2179 41.9947 29.0779 42.2952 29.051C42.5956 29.0241 42.895 29.1124 43.1293 29.297L50.6076 35.4833C50.735 35.5887 50.8373 35.7197 50.9075 35.8673C50.9777 36.0149 51.0141 36.1756 51.0141 36.3382C51.0141 36.5008 50.9777 36.6614 50.9075 36.809C50.8373 36.9566 50.735 37.0876 50.6076 37.193L43.1293 43.3793C42.9208 43.5525 42.6555 43.6477 42.3812 43.6477H42.3811ZM32.3524 48.2878C32.1803 48.288 32.0103 48.2508 31.8548 48.179C31.6993 48.1072 31.5623 48.0026 31.4538 47.8728C31.3453 47.743 31.2679 47.5913 31.2275 47.4287C31.187 47.2662 31.1844 47.0969 31.2199 46.9333L35.8805 25.4351C35.9437 25.1437 36.1235 24.8887 36.3802 24.726C36.637 24.5634 36.9498 24.5066 37.2497 24.568C37.5496 24.6294 37.8122 24.804 37.9796 25.0535C38.147 25.3029 38.2055 25.6068 38.1423 25.8982L33.4817 47.3962C33.4271 47.648 33.2852 47.874 33.0796 48.0363C32.874 48.1986 32.6173 48.2874 32.3524 48.2878Z" fill="url(#paint0_linear_123_2553)"/>
<path id="Vector_2" d="M62.2406 60H7.75943C3.48118 60 0 56.6186 0 52.4616V7.53837C0 3.382 3.48118 0 7.75943 0H62.2406C66.5188 0 70 3.382 70 7.53837V52.4616C70 56.6186 66.5188 60 62.2406 60ZM7.75943 2.24547C4.75554 2.24547 2.31132 4.62006 2.31132 7.53837V52.4616C2.31132 55.3799 4.75554 57.7545 7.75943 57.7545H62.2406C65.2445 57.7545 67.6887 55.3799 67.6887 52.4616V7.53837C67.6887 4.62006 65.2445 2.24547 62.2406 2.24547H7.75943Z" fill="url(#paint1_linear_123_2553)"/>
<path id="Vector_3" d="M68.8445 17.9781H1.15582C0.852704 17.9732 0.563735 17.8527 0.351187 17.6427C0.138639 17.4327 0.0195312 17.1499 0.0195312 16.8554C0.0195312 16.5609 0.138639 16.2782 0.351187 16.0681C0.563735 15.8581 0.852704 15.7376 1.15582 15.7327H68.8445C69.1476 15.7376 69.4366 15.8581 69.6491 16.0681C69.8617 16.2782 69.9808 16.5609 69.9808 16.8554C69.9808 17.1499 69.8617 17.4327 69.6491 17.6427C69.4366 17.8527 69.1476 17.9732 68.8445 17.9781ZM19.7458 12.6057C17.7298 12.6057 16.0884 11.0111 16.0884 9.05255C16.0884 7.09354 17.7298 5.49957 19.7458 5.49957C21.7622 5.49957 23.4029 7.09354 23.4029 9.05255C23.4029 11.0111 21.7622 12.6057 19.7458 12.6057ZM19.7458 7.74504C19.004 7.74504 18.3998 8.33143 18.3998 9.05255C18.3998 9.77367 19.004 10.3602 19.7458 10.3602C20.488 10.3602 21.0916 9.77383 21.0916 9.05255C21.0916 8.33127 20.488 7.74504 19.7458 7.74504ZM8.50912 12.5712C6.49233 12.5712 4.85179 10.9772 4.85179 9.01823C4.85179 7.05905 6.49233 5.46509 8.50896 5.46509C10.5256 5.46509 12.1661 7.05905 12.1661 9.01823C12.1661 10.9772 10.5258 12.5712 8.50912 12.5712ZM8.50912 7.71056C7.76735 7.71056 7.16311 8.29759 7.16311 9.01823C7.16311 9.73935 7.76735 10.3257 8.50896 10.3257C9.25122 10.3257 9.85481 9.73935 9.85481 9.01823C9.85481 8.29759 9.25139 7.71056 8.50912 7.71056ZM30.9824 12.6395C28.9666 12.6395 27.3259 11.0456 27.3259 9.08639C27.3259 7.12802 28.9665 5.53406 30.9824 5.53406C32.9991 5.53406 34.6396 7.12786 34.6396 9.08639C34.6396 11.0456 32.9991 12.6395 30.9824 12.6395ZM30.9824 7.77889C30.2408 7.77889 29.6372 8.36528 29.6372 9.08639C29.6372 9.80751 30.2408 10.3941 30.9824 10.3941C31.7247 10.3941 32.3283 9.80751 32.3283 9.08639C32.3283 8.36528 31.7247 7.77889 30.9824 7.77889Z" fill="url(#paint2_linear_123_2553)"/>
</g>
<defs>
<linearGradient id="paint0_linear_123_2553" x1="34.7679" y1="19.6182" x2="35.4047" y2="63.5736" gradientUnits="userSpaceOnUse">
<stop stop-color="#DD1C23"/>
<stop offset="0.48" stop-color="#CA1821"/>
<stop offset="1" stop-color="#A00F15"/>
</linearGradient>
<linearGradient id="paint1_linear_123_2553" x1="34.4933" y1="-12.4468" x2="36.3537" y2="98.6189" gradientUnits="userSpaceOnUse">
<stop stop-color="#DD1C23"/>
<stop offset="0.48" stop-color="#CA1821"/>
<stop offset="1" stop-color="#A00F15"/>
</linearGradient>
<linearGradient id="paint2_linear_123_2553" x1="34.4938" y1="2.86929" x2="34.5747" y2="26.0384" gradientUnits="userSpaceOnUse">
<stop stop-color="#DD1C23"/>
<stop offset="0.48" stop-color="#CA1821"/>
<stop offset="1" stop-color="#A00F15"/>
</linearGradient>
</defs>
</svg>
