<svg width="61" height="61" viewBox="0 0 61 61" fill="none" xmlns="http://www.w3.org/2000/svg">
<g id="Group">
<path id="Vector" d="M60.8837 30.4874C60.9349 5.59614 32.2055 -8.73752 12.4727 5.86392C-6.44687 19.4574 -3.2379 48.9879 18.0024 58.3177C37.7635 67.3448 60.9991 52.4625 60.8837 30.4874ZM58.465 26.8539L43.4434 35.1855V5.38062C47.4899 7.48759 50.9683 10.5397 53.5834 14.278C56.1985 18.0163 57.8731 22.3303 58.465 26.8539ZM19.4632 36.0976V23.8953L30.1362 17.5949L41.2663 23.8322V36.3937L30.4355 42.4002L19.4632 36.0976ZM41.2663 4.35631V21.3362L15.1222 6.68467C18.9653 4.20807 23.3526 2.70212 27.9065 2.29635C32.4605 1.89058 37.0448 2.59713 41.2653 4.35523L41.2663 4.35631ZM13.1509 8.07471L27.9385 16.3627L2.13178 31.602C1.95365 27.0851 2.8613 22.5913 4.77861 18.4976C6.69591 14.4039 9.56695 10.8297 13.1509 8.07471ZM2.33207 34.0142L17.2884 25.183V55.5539C13.2453 53.4329 9.77422 50.3671 7.17012 46.617C4.56601 42.8669 2.90701 38.5434 2.33207 34.0142ZM19.4654 56.588V38.6078L46.1963 53.9636C42.308 56.5841 37.8289 58.1959 33.1624 58.6539C28.496 59.1118 23.7889 58.4026 19.4654 56.588ZM48.1044 52.5496L32.6409 43.6672L58.6762 29.228C58.8727 33.6729 58.0177 38.1014 56.1808 42.1537C54.3439 46.206 51.5768 49.7678 48.1044 52.5496Z" fill="url(#paint0_linear_123_2576)"/>
</g>
<defs>
<linearGradient id="paint0_linear_123_2576" x1="30.4421" y1="0" x2="30.4421" y2="61" gradientUnits="userSpaceOnUse">
<stop stop-color="#DD1C23"/>
<stop offset="0.51" stop-color="#CA1821"/>
<stop offset="1" stop-color="#A00F15"/>
</linearGradient>
</defs>
</svg>
