<svg width="47" height="60" viewBox="0 0 47 60" fill="none" xmlns="http://www.w3.org/2000/svg">
<g id="Group">
<path id="Vector" d="M17.2717 5.3888H22.037C22.2856 5.3888 22.5241 5.29002 22.6999 5.11421C22.8757 4.93839 22.9745 4.69994 22.9745 4.45129C22.9745 4.20265 22.8757 3.9642 22.6999 3.78838C22.5241 3.61257 22.2856 3.51379 22.037 3.51379H17.2717C17.023 3.51379 16.7846 3.61257 16.6087 3.78838C16.4329 3.9642 16.3342 4.20265 16.3342 4.45129C16.3342 4.69994 16.4329 4.93839 16.6087 5.11421C16.7846 5.29002 17.023 5.3888 17.2717 5.3888ZM13.022 55.8601H21.5214C21.77 55.8601 22.0084 55.7613 22.1843 55.5855C22.3601 55.4097 22.4589 55.1712 22.4589 54.9226C22.4589 54.6739 22.3601 54.4355 22.1843 54.2597C22.0084 54.0838 21.77 53.9851 21.5214 53.9851H13.022C12.7733 53.9851 12.5349 54.0838 12.3591 54.2597C12.1832 54.4355 12.0845 54.6739 12.0845 54.9226C12.0845 55.1712 12.1832 55.4097 12.3591 55.5855C12.5349 55.7613 12.7733 55.8601 13.022 55.8601Z" fill="url(#paint0_linear_123_2564)"/>
<path id="Vector_2" d="M0.937501 46.5319C1.18614 46.5319 1.4246 46.4331 1.60041 46.2573C1.77623 46.0815 1.875 45.843 1.875 45.5944V8.90625H32.6672V13.7288C32.6672 13.9774 32.766 14.2159 32.9418 14.3917C33.1176 14.5675 33.3561 14.6663 33.6047 14.6663C33.8533 14.6663 34.0918 14.5675 34.2676 14.3917C34.4434 14.2159 34.5422 13.9774 34.5422 13.7288L34.546 3.73125C34.546 1.67813 32.8678 0 30.8081 0H3.73125C1.77188 0 0 1.6125 0 3.73406V45.5944C0 45.843 0.0987723 46.0815 0.274588 46.2573C0.450403 46.4331 0.68886 46.5319 0.937501 46.5319ZM30.8063 1.875C31.7972 1.875 32.6681 2.68594 32.6681 3.73406V7.03125H1.875V3.73125C1.875 2.70938 2.71313 1.875 3.73406 1.875H30.8063Z" fill="url(#paint1_linear_123_2564)"/>
<path id="Vector_3" d="M23.0569 23.6212C23.2336 23.7961 23.4725 23.8937 23.7211 23.8925C23.9697 23.8912 24.2076 23.7913 24.3826 23.6147L28.3013 19.6603C28.4751 19.4848 28.5725 19.2478 28.5725 19.0008C28.5725 18.7538 28.4751 18.5168 28.3013 18.3412L24.3826 14.3869C24.2058 14.2193 23.9708 14.1272 23.7273 14.1299C23.4837 14.1326 23.2508 14.23 23.0778 14.4014C22.9048 14.5728 22.8053 14.8048 22.8004 15.0483C22.7954 15.2918 22.8854 15.5276 23.0513 15.7059L26.3147 19.0012L23.0504 22.2956C22.8755 22.4723 22.7779 22.7112 22.7792 22.9598C22.7804 23.2084 22.8803 23.4463 23.0569 23.6212ZM11.4854 14.3803C11.398 14.2935 11.2944 14.2248 11.1804 14.1781C11.0664 14.1314 10.9444 14.1077 10.8212 14.1083C10.698 14.1089 10.5762 14.1338 10.4627 14.1816C10.3492 14.2294 10.2462 14.2992 10.1597 14.3869L6.24193 18.3412C6.06817 18.5168 5.9707 18.7538 5.9707 19.0008C5.9707 19.2478 6.06817 19.4848 6.24193 19.6603L10.1607 23.6147C10.2462 23.7066 10.3494 23.7805 10.464 23.8318C10.5787 23.8831 10.7024 23.9108 10.828 23.9134C10.9536 23.9159 11.0784 23.8932 11.195 23.8466C11.3116 23.8 11.4177 23.7304 11.5069 23.642C11.5961 23.5536 11.6667 23.4482 11.7143 23.332C11.762 23.2158 11.7859 23.0912 11.7845 22.9657C11.7831 22.8401 11.7565 22.716 11.7062 22.6009C11.656 22.4858 11.5831 22.382 11.4919 22.2956L8.22849 19.0012L11.4919 15.7059C11.6668 15.5293 11.7644 15.2903 11.7631 15.0418C11.7619 14.7932 11.662 14.5552 11.4854 14.3803ZM18.7829 11.7309L13.2797 25.5778C13.2343 25.6922 13.2117 25.8145 13.2135 25.9376C13.2153 26.0608 13.2413 26.1824 13.29 26.2954C13.3388 26.4085 13.4093 26.5109 13.4976 26.5967C13.586 26.6825 13.6903 26.7501 13.8047 26.7956C13.9192 26.8411 14.0415 26.8636 14.1646 26.8619C14.2877 26.8601 14.4093 26.8341 14.5224 26.7853C14.6355 26.7366 14.7378 26.666 14.8237 26.5777C14.9095 26.4894 14.9771 26.3851 15.0226 26.2706L20.5257 12.4237C20.6176 12.1925 20.6138 11.9342 20.5153 11.7058C20.4167 11.4773 20.2315 11.2973 20.0002 11.2055C19.769 11.1136 19.5107 11.1173 19.2822 11.2159C19.0538 11.3144 18.8738 11.4997 18.7819 11.7309H18.7829ZM33.6094 29.1C30.8626 29.1 28.6313 31.3312 28.6313 34.0781C28.6313 36.8512 30.8926 39.0562 33.6094 39.0562C36.3151 39.0562 38.5782 36.855 38.5782 34.0781C38.5782 31.3312 36.3469 29.1 33.6094 29.1ZM34.5469 37.0312V33.4594C34.5469 32.9437 34.1251 32.5219 33.6094 32.5219C33.0844 32.5219 32.6719 32.9437 32.6719 33.4594V37.0406C31.9672 36.8149 31.3662 36.345 30.9771 35.7156C30.588 35.0862 30.4363 34.3386 30.5493 33.6073C30.6624 32.876 31.0327 32.2091 31.5937 31.7265C32.1547 31.2439 32.8695 30.9775 33.6094 30.975C35.3157 30.975 36.7032 32.3719 36.7032 34.0781C36.7032 35.4656 35.7938 36.6375 34.5469 37.0312Z" fill="url(#paint2_linear_123_2564)"/>
<path id="Vector_4" d="M45.75 31.1155L43.4438 30.853C43.2657 30.3093 43.0407 29.7749 42.7688 29.2593L44.1188 27.3468C44.3907 26.9812 44.3438 26.4655 44.025 26.1468L41.3344 23.4655C41.1725 23.3013 40.9556 23.2027 40.7253 23.1888C40.4951 23.175 40.2679 23.2468 40.0875 23.3905L38.2781 24.8437C37.7625 24.5812 37.2281 24.3655 36.675 24.1968L36.2906 21.8812C36.253 21.6626 36.139 21.4646 35.9691 21.3221C35.7992 21.1796 35.5843 21.102 35.3625 21.103H31.5656C31.0875 21.103 30.6844 21.4593 30.6281 21.9374L30.375 24.253C29.8219 24.4312 29.2969 24.6562 28.7906 24.9187L26.8688 23.5593C26.6893 23.4306 26.4697 23.3703 26.2497 23.3892C26.0297 23.4081 25.8237 23.505 25.6688 23.6624L22.9875 26.3437C22.65 26.6812 22.6219 27.2155 22.9219 27.5905L24.3656 29.4093C24.1031 29.9249 23.8875 30.4593 23.7188 31.0124L21.4125 31.3968C20.9625 31.4812 20.625 31.8655 20.625 32.3249V36.1218C20.625 36.5999 20.9906 36.9937 21.4594 37.0499L23.7656 37.3124C23.9438 37.8655 24.1781 38.3999 24.4406 38.9062L23.0906 40.8093C22.8281 41.1843 22.8656 41.6905 23.1938 42.0187L25.875 44.6999C26.2125 45.0374 26.7469 45.0655 27.1219 44.7655L28.9406 43.3218C29.4563 43.5749 29.9813 43.7905 30.5344 43.9593L30.9188 46.2749C30.9545 46.4952 31.0675 46.6954 31.2376 46.8398C31.4078 46.9841 31.6238 47.0631 31.8469 47.0624H32.6719V49.1343H0.937501C0.421875 49.1343 0 49.5562 0 50.0718V56.2687C0.00247518 57.2575 0.396383 58.2051 1.09559 58.9043C1.7948 59.6035 2.74242 59.9975 3.73125 59.9999H30.8063C32.8688 59.9999 34.5469 58.3218 34.5469 56.2687V47.0624H35.6438C36.1219 47.0624 36.525 46.7062 36.5813 46.2281L36.8438 43.9124C37.3889 43.7334 37.9187 43.5108 38.4282 43.2468L40.3406 44.6062C40.7157 44.8687 41.2219 44.8218 41.55 44.503L44.2219 41.8124C44.5594 41.4749 44.5875 40.9405 44.2875 40.5749L42.8438 38.7562C43.1063 38.2312 43.3219 37.6968 43.4907 37.153L45.7969 36.7593C46.2469 36.6843 46.5844 36.2905 46.5844 35.8405V32.0437C46.5844 31.5655 46.2282 31.1624 45.75 31.1155ZM32.6719 56.2687C32.6719 57.2906 31.8375 58.1249 30.8063 58.1249H3.73125C2.70938 58.1249 1.875 57.2906 1.875 56.2687V51.0093H32.6719V56.2687ZM44.7094 35.0437L42.5906 35.3999C42.2156 35.4655 41.925 35.7374 41.8313 36.1124C41.6438 36.8999 41.3344 37.6593 40.9219 38.3812C40.725 38.7093 40.7531 39.1312 40.9969 39.4312L42.3 41.0812L40.7813 42.6187L39.0188 41.3624C38.8685 41.2574 38.6907 41.1988 38.5074 41.1938C38.3241 41.1888 38.1433 41.2376 37.9875 41.3343C37.3031 41.7562 36.5531 42.0749 35.7563 42.2718C35.3719 42.3655 35.0906 42.6937 35.0438 43.078L34.8094 45.1874H32.6344L32.2781 43.0593C32.2488 42.8785 32.1663 42.7106 32.041 42.577C31.9158 42.4434 31.7535 42.3502 31.575 42.3093C30.7875 42.1124 30.0281 41.803 29.325 41.3905C29.1618 41.2938 28.9729 41.2492 28.7836 41.2626C28.5943 41.276 28.4136 41.3468 28.2656 41.4655L26.6063 42.778L25.0781 41.2499L26.3156 39.5155C26.5153 39.2334 26.55 38.8162 26.3531 38.4655C25.9313 37.7812 25.6031 37.0218 25.3969 36.2155C25.3516 36.032 25.2508 35.8668 25.1082 35.7427C24.9655 35.6185 24.7881 35.5414 24.6 35.5218L22.5 35.278V33.1218L24.6188 32.7655C24.9938 32.6999 25.2938 32.4187 25.3781 32.053C25.5656 31.2562 25.875 30.4968 26.2969 29.803C26.4938 29.4655 26.475 29.0437 26.2313 28.7343L24.9094 27.0749L26.4375 25.5468L28.1906 26.7937C28.34 26.9001 28.5173 26.9604 28.7006 26.9671C28.8839 26.9737 29.0652 26.9265 29.2219 26.8312C29.9063 26.4093 30.6656 26.0905 31.4719 25.8843C31.8469 25.7905 32.1188 25.4718 32.1656 25.0874L32.4 22.978H34.575L34.9313 25.0968C34.9969 25.4718 35.2688 25.7718 35.6344 25.8562C36.4313 26.0437 37.1906 26.353 37.8938 26.7749C38.2313 26.9718 38.6531 26.9437 38.9532 26.6999L40.6031 25.378L42.1313 26.9155L40.8938 28.6593C40.6969 28.9377 40.6566 29.3446 40.8563 29.6999C41.2875 30.403 41.6063 31.1624 41.8032 31.9405C41.8969 32.3155 42.2156 32.5968 42.6094 32.6437L44.7094 32.878V35.0437Z" fill="url(#paint3_linear_123_2564)"/>
</g>
<defs>
<linearGradient id="paint0_linear_123_2564" x1="17.5295" y1="3.51379" x2="17.5295" y2="55.8601" gradientUnits="userSpaceOnUse">
<stop stop-color="#DD1C23"/>
<stop offset="0.51" stop-color="#CA1821"/>
<stop offset="1" stop-color="#A00F15"/>
</linearGradient>
<linearGradient id="paint1_linear_123_2564" x1="17.273" y1="0" x2="17.273" y2="46.5319" gradientUnits="userSpaceOnUse">
<stop stop-color="#DD1C23"/>
<stop offset="0.51" stop-color="#CA1821"/>
<stop offset="1" stop-color="#A00F15"/>
</linearGradient>
<linearGradient id="paint2_linear_123_2564" x1="22.2744" y1="11.1392" x2="22.2744" y2="39.0562" gradientUnits="userSpaceOnUse">
<stop stop-color="#DD1C23"/>
<stop offset="0.51" stop-color="#CA1821"/>
<stop offset="1" stop-color="#A00F15"/>
</linearGradient>
<linearGradient id="paint3_linear_123_2564" x1="23.2922" y1="21.103" x2="23.2922" y2="59.9999" gradientUnits="userSpaceOnUse">
<stop stop-color="#DD1C23"/>
<stop offset="0.51" stop-color="#CA1821"/>
<stop offset="1" stop-color="#A00F15"/>
</linearGradient>
</defs>
</svg>
