<svg width="52" height="60" viewBox="0 0 52 60" fill="none" xmlns="http://www.w3.org/2000/svg">
<g id="Group">
<path id="Vector" d="M38.0445 36.2728L27.1354 10.3637C26.59 9.13642 25.2263 9.13642 24.6809 10.3637L13.7718 36.2728C13.499 36.8182 13.6354 37.3637 14.0445 37.7728C16.6354 40.5001 18.4081 44.0455 19.09 47.7273H17.7263C16.9081 47.7273 16.3627 48.2728 16.3627 49.091V58.6364C16.3627 59.4546 16.9081 60.0001 17.7263 60.0001H34.09C34.9081 60.0001 35.4536 59.4546 35.4536 58.6364V49.091C35.4536 48.2728 34.9081 47.7273 34.09 47.7273H32.8627C33.5445 44.0455 35.1809 40.5001 37.7718 37.7728C38.1809 37.3637 38.3172 36.8182 38.0445 36.2728ZM25.9081 35.4546C26.7263 35.4546 27.2718 36.0001 27.2718 36.8182C27.2718 37.6364 26.7263 38.1819 25.9081 38.1819C25.09 38.1819 24.5445 37.6364 24.5445 36.8182C24.5445 36.0001 25.09 35.4546 25.9081 35.4546ZM32.7263 57.2728H19.09V50.4546H32.7263V57.2728ZM29.999 47.7273H21.8172C21.2718 43.6364 19.499 39.6819 16.6354 36.5455L24.5445 17.7273V33.0001C22.3627 33.8182 21.2718 36.1364 22.09 38.1819C22.9081 40.3637 25.2263 41.4546 27.2718 40.6364C29.3172 39.8182 30.5445 37.5001 29.7263 35.4546C29.3172 34.2273 28.3627 33.4091 27.2718 33.0001V17.7273L35.1809 36.5455C32.4536 39.6819 30.6809 43.6364 29.999 47.7273Z" fill="url(#paint0_linear_123_2658)"/>
<path id="Vector_2" d="M28.6353 0H23.1807C22.3626 0 21.8171 0.545454 21.8171 1.36364V2.72727H7.90801C7.22619 0.545454 4.90801 -0.545454 2.72619 0.272727C0.544377 1.09091 -0.546533 3.27273 0.271649 5.45455C1.08983 7.63636 3.27165 8.72727 5.45347 7.90909C6.68074 7.5 7.49892 6.54545 7.90801 5.45455H13.2262C4.63528 10.9091 2.72619 22.7727 2.72619 23.0455C2.58983 23.7273 2.86256 24.5455 4.08983 24.5455C4.77165 24.5455 5.3171 24 5.45347 23.3182C5.45347 23.1818 8.04438 6.54545 21.8171 5.45455V6.81818C21.8171 7.63636 22.3626 8.18182 23.1807 8.18182H28.6353C29.4535 8.18182 29.9989 7.63636 29.9989 6.81818V5.45455C42.6807 6.54545 46.3626 23.1818 46.3626 23.4545C46.4989 24.1364 47.0444 24.6818 47.7262 24.5455C49.3626 24.4091 49.0898 22.9091 49.0898 22.9091C49.0898 22.7727 46.3626 10.9091 37.908 5.45455H43.908C44.7262 7.63636 47.0444 8.72727 49.0898 7.90909C51.2716 7.09091 52.3626 4.77273 51.5444 2.72727C50.7262 0.545454 48.408 -0.545454 46.3626 0.272727C45.1353 0.681818 44.3171 1.63636 43.908 2.72727H29.9989V1.36364C29.9989 0.545454 29.4535 0 28.6353 0ZM4.08983 5.45455C3.27165 5.45455 2.72619 4.90909 2.72619 4.09091C2.72619 3.27273 3.27165 2.72727 4.08983 2.72727C4.90801 2.72727 5.45347 3.27273 5.45347 4.09091C5.45347 4.90909 4.90801 5.45455 4.08983 5.45455ZM27.2716 5.45455H24.5444V2.72727H27.2716V5.45455ZM47.7262 2.72727C48.5444 2.72727 49.0898 3.27273 49.0898 4.09091C49.0898 4.90909 48.5444 5.45455 47.7262 5.45455C46.908 5.45455 46.3626 4.90909 46.3626 4.09091C46.3626 3.27273 46.908 2.72727 47.7262 2.72727Z" fill="url(#paint1_linear_123_2658)"/>
</g>
<defs>
<linearGradient id="paint0_linear_123_2658" x1="25.9081" y1="9.44324" x2="25.9081" y2="60.0001" gradientUnits="userSpaceOnUse">
<stop stop-color="#DD1C23"/>
<stop offset="0.475" stop-color="#CA1821"/>
<stop offset="0.955" stop-color="#A00F15"/>
</linearGradient>
<linearGradient id="paint1_linear_123_2658" x1="25.908" y1="0" x2="25.908" y2="24.5665" gradientUnits="userSpaceOnUse">
<stop stop-color="#DD1C23"/>
<stop offset="0.475" stop-color="#CA1821"/>
<stop offset="0.955" stop-color="#A00F15"/>
</linearGradient>
</defs>
</svg>
