<svg width="60" height="60" viewBox="0 0 60 60" fill="none" xmlns="http://www.w3.org/2000/svg">
<g id="Group">
<path id="Vector" d="M59.4921 57.0212L45.8585 43.3893C50.051 38.6359 52.3599 32.5131 52.3499 26.1749C52.3499 19.1827 49.6277 12.6093 44.6841 7.66577C39.7405 2.72219 33.1671 0 26.1767 0C19.1862 0 12.6111 2.72219 7.66577 7.66402C2.72045 12.6058 0 19.181 0 26.1732C0 33.1654 2.72219 39.737 7.66577 44.6806C12.6093 49.6242 19.1827 52.3481 26.1749 52.3481C32.5791 52.3481 38.6168 50.0395 43.3893 45.855L57.0212 59.4869C57.1829 59.6495 57.3751 59.7786 57.5869 59.8666C57.7986 59.9547 58.0256 60 58.2549 60C58.4843 60 58.7113 59.9547 58.923 59.8666C59.1347 59.7786 59.327 59.6495 59.4887 59.4869C59.8158 59.1597 59.9996 58.7159 59.9996 58.2532C59.9996 57.7905 59.8158 57.3467 59.4887 57.0195L59.4921 57.0212ZM10.1332 42.2149C5.84923 37.9292 3.48999 32.2336 3.48999 26.1749C3.48999 20.1163 5.84923 14.4189 10.1332 10.1332C14.4189 5.84923 20.1146 3.48999 26.1749 3.48999C32.2353 3.48999 37.931 5.84923 42.2167 10.1332C46.5007 14.4189 48.8616 20.1146 48.8616 26.1749C48.8616 32.2353 46.5007 37.9292 42.2167 42.2149C37.931 46.4989 32.2353 48.8599 26.1767 48.8599C20.1181 48.8599 14.4172 46.4989 10.1332 42.2149Z" fill="url(#paint0_linear_123_2595)"/>
</g>
<defs>
<linearGradient id="paint0_linear_123_2595" x1="29.9998" y1="0" x2="29.9998" y2="60" gradientUnits="userSpaceOnUse">
<stop stop-color="#DD1C23"/>
<stop offset="0.51" stop-color="#CA1821"/>
<stop offset="1" stop-color="#A00F15"/>
</linearGradient>
</defs>
</svg>
