<svg width="59" height="58" viewBox="0 0 59 58" fill="none" xmlns="http://www.w3.org/2000/svg">
<g id="Group">
<path id="Vector" d="M57.6998 37.2938C56.8202 35.4467 54.7093 34.5671 52.8622 35.6226L39.1409 44.5942C38.7011 44.8581 38.6131 45.3858 38.877 45.8256C39.1409 46.2654 39.6686 46.3533 40.1084 46.0895L53.7417 37.1179C54.5333 36.6781 55.5888 36.9419 56.1166 37.9974C56.5564 39.0529 56.2045 40.3723 55.237 40.9C38.877 51.6308 43.6267 48.6402 32.72 55.4129C31.4007 56.2045 29.8174 56.3804 28.4101 55.9407L16.6239 51.7187C16.5359 51.7187 16.448 51.6308 16.272 51.6308L12.314 51.8946V35.6226C14.337 35.0949 20.6699 33.8635 23.4845 37.4697C24.0123 38.0854 24.8039 38.5252 25.6834 38.5252H35.7985C36.766 38.5252 37.5576 39.4927 37.5576 40.6361C37.5576 41.7796 36.766 42.7471 35.7985 42.7471H26.1232C25.1557 42.7471 24.2761 43.2749 23.7484 44.2424C23.2206 45.2099 23.3086 46.4413 23.9243 47.4088C24.1882 47.8486 24.7159 47.8486 25.1557 47.5847C25.5955 47.3209 25.5955 46.7052 25.3316 46.3533C25.0677 45.9136 25.0677 45.3858 25.2437 45.034C25.3316 44.946 25.5955 44.5062 26.0353 44.5062H35.7105C37.6456 44.5062 39.2288 42.7471 39.2288 40.6361C39.2288 38.5252 37.6456 36.766 35.7105 36.766H25.6834C25.5075 36.766 25.0677 36.6781 24.8039 36.4142C21.6374 32.1923 14.9527 33.2478 12.314 33.7755V31.9284C12.314 31.4007 11.9622 31.0488 11.4344 31.0488H0.87957C0.351828 31.0488 0 31.4007 0 31.9284V54.8852C0 55.4129 0.351828 55.7647 0.87957 55.7647H11.4344C11.9622 55.7647 12.314 55.4129 12.314 54.8852V53.6538L16.1841 53.4779L27.7944 57.6118C29.7295 58.3155 31.8404 58.0516 33.6875 56.9082C45.9136 49.168 38.965 53.7417 56.2045 42.3953C57.8757 41.5157 58.4914 39.1409 57.6998 37.2938ZM10.5548 54.0936H1.75914V32.8959H10.5548V54.0936Z" fill="url(#paint0_linear_123_2668)"/>
<path id="Vector_2" d="M2.5504 18.7348L5.18911 19.0867C5.45298 20.2301 5.89277 21.1976 6.50847 22.1652L4.92524 24.2761C4.66137 24.628 4.66137 25.1557 5.0132 25.4196L7.21212 27.6185C7.56395 27.9703 8.00374 27.9703 8.35556 27.7065L10.4665 26.1232C11.4341 26.7389 12.4895 27.1787 13.545 27.4426L13.8969 30.0813C13.9848 30.5211 14.3366 30.8729 14.7764 30.8729H17.8549C18.2947 30.8729 18.6465 30.5211 18.7345 30.0813L19.0863 27.4426C19.8779 27.2667 20.6695 26.9148 21.3732 26.563V31.6645C21.3732 32.1923 21.725 32.5441 22.2528 32.5441H54.8848C55.4126 32.5441 55.7644 32.1923 55.7644 31.6645V0.87957C55.7644 0.351828 55.4126 0 54.8848 0H22.2528C21.725 0 21.3732 0.351828 21.3732 0.87957V6.06903C20.6695 5.71721 19.8779 5.45333 19.0863 5.18946L18.7345 2.55075C18.6465 2.11097 18.2947 1.75914 17.8549 1.75914H14.7764C14.3366 1.75914 13.9848 2.11097 13.8969 2.55075L13.545 5.18946C12.4016 5.45333 11.4341 5.89312 10.4665 6.50882L8.26761 4.92559C7.91578 4.66172 7.47599 4.66172 7.12417 4.92559L5.0132 7.12452C4.66137 7.47635 4.66137 7.91613 4.92524 8.26796L6.50847 10.3789C5.89277 11.3465 5.45298 12.4019 5.18911 13.4574L2.5504 13.8092C2.11062 13.8972 1.75879 14.249 1.75879 14.6888V17.7673C1.84675 18.2951 2.11062 18.6469 2.5504 18.7348ZM23.1323 30.785V26.7389L24.2758 27.6185C24.4517 27.7065 24.6276 27.7944 24.8035 27.7944C25.0674 27.7944 25.3313 27.7065 25.5072 27.5305L27.6181 25.4196C27.97 25.0677 27.97 24.628 27.7061 24.2761L26.1229 22.1652C26.7386 21.1976 27.1784 20.1422 27.4422 19.0867L30.0809 18.7348C30.5207 18.6469 30.8726 18.2951 30.8726 17.8553V14.7768C30.8726 14.337 30.5207 13.9852 30.0809 13.8972L27.4422 13.5454C27.1784 12.4019 26.7386 11.4344 26.1229 10.4669L26.7386 9.67527H32.9835V15.8323C32.9835 16.1841 33.2474 16.5359 33.5113 16.6239C33.8631 16.7118 34.2149 16.6239 34.4788 16.36L38.6128 11.7862L42.7467 16.36C43.0106 16.6239 43.3624 16.7118 43.7143 16.6239C44.0661 16.5359 44.242 16.1841 44.242 15.8323V9.67527H54.0052V30.785H23.1323ZM34.6547 8.7957C34.6547 8.70774 34.6547 8.70774 34.6547 8.7957V1.75914H42.3949V13.5454L39.1405 9.93914C38.9646 9.76323 38.7007 9.67527 38.5248 9.67527C38.2609 9.67527 37.9971 9.76323 37.9091 9.93914L34.6547 13.5454V8.7957ZM53.9173 7.82817H44.1541V1.75914H53.9173V7.82817ZM32.8956 1.75914V7.91613H27.7941C27.7941 7.65226 27.7061 7.30043 27.5302 7.12452L25.4192 5.01355C25.0674 4.66172 24.6276 4.66172 24.2758 4.92559L23.1323 5.80516V1.75914H32.8956ZM3.60589 15.4804L6.06868 15.1286C6.42051 15.0406 6.77234 14.7768 6.8603 14.4249C7.03621 13.1936 7.56395 11.9622 8.35556 10.9067C8.53148 10.5548 8.53148 10.203 8.35556 9.85118L6.77234 7.82817L7.82782 6.77269L9.76288 8.26796C10.0267 8.53183 10.5545 8.53183 10.8184 8.26796C11.9618 7.5643 13.1932 7.03656 14.5126 6.77269C14.8644 6.68473 15.1283 6.42086 15.2162 5.98108L15.568 3.51828H17.0633L17.4151 5.98108C17.5031 6.3329 17.767 6.68473 18.1188 6.77269C19.4381 7.03656 20.6695 7.5643 21.725 8.26796C22.0769 8.53183 22.5166 8.44387 22.7805 8.26796L24.8035 6.77269L25.859 7.82817L24.3637 9.85118C24.0999 10.1151 24.0999 10.5548 24.3637 10.9067C25.0674 11.9622 25.5951 13.1936 25.859 14.5129C25.947 14.8647 26.2108 15.1286 26.6506 15.2166L29.1134 15.5684V17.0637L26.6506 17.4155C26.2988 17.5034 25.947 17.7673 25.859 18.1191C25.5951 19.4385 25.0674 20.6699 24.3637 21.7254C24.1878 22.0772 24.1878 22.429 24.3637 22.7809L25.859 24.8039L24.8035 25.8594L22.7805 24.3641C22.5166 24.1002 22.0769 24.1002 21.725 24.3641C20.6695 25.0677 19.4381 25.5955 18.1188 25.8594C17.767 25.9473 17.5031 26.2112 17.4151 26.651L17.0633 29.0258H15.568L15.2162 26.563C15.1283 26.2112 14.8644 25.8594 14.5126 25.7714C13.1932 25.5075 11.9618 24.9798 10.9063 24.2761C10.5545 24.1002 10.2027 24.1002 9.85083 24.2761L7.82782 25.7714L6.77234 24.7159L8.26761 22.7809C8.53148 22.517 8.53148 21.9893 8.26761 21.6374C7.56395 20.5819 7.03621 19.3505 6.8603 18.1191C6.77234 17.7673 6.50847 17.5034 6.06868 17.4155L3.60589 17.0637V15.4804Z" fill="url(#paint1_linear_123_2668)"/>
<path id="Vector_3" d="M16.2719 23.3087C20.142 23.3087 23.3085 20.1423 23.3085 16.2722C23.3085 12.402 20.142 9.2356 16.2719 9.2356C12.4018 9.2356 9.23535 12.402 9.23535 16.2722C9.23535 20.1423 12.4018 23.3087 16.2719 23.3087ZM16.2719 10.9947C19.1745 10.9947 21.5493 13.3696 21.5493 16.2722C21.5493 19.1747 19.1745 21.5496 16.2719 21.5496C13.3693 21.5496 10.9945 19.1747 10.9945 16.2722C10.9945 13.3696 13.3693 10.9947 16.2719 10.9947Z" fill="url(#paint2_linear_123_2668)"/>
</g>
<defs>
<linearGradient id="paint0_linear_123_2668" x1="29.021" y1="31.0488" x2="29.021" y2="58" gradientUnits="userSpaceOnUse">
<stop stop-color="#DD1C23"/>
<stop offset="0.52" stop-color="#CA1821"/>
<stop offset="1" stop-color="#A00F15"/>
</linearGradient>
<linearGradient id="paint1_linear_123_2668" x1="28.7616" y1="0" x2="28.7616" y2="32.5441" gradientUnits="userSpaceOnUse">
<stop stop-color="#DD1C23"/>
<stop offset="0.52" stop-color="#CA1821"/>
<stop offset="1" stop-color="#A00F15"/>
</linearGradient>
<linearGradient id="paint2_linear_123_2668" x1="16.2719" y1="9.2356" x2="16.2719" y2="23.3087" gradientUnits="userSpaceOnUse">
<stop stop-color="#DD1C23"/>
<stop offset="0.52" stop-color="#CA1821"/>
<stop offset="1" stop-color="#A00F15"/>
</linearGradient>
</defs>
</svg>
