<svg width="60" height="60" viewBox="0 0 60 60" fill="none" xmlns="http://www.w3.org/2000/svg">
<g id="Group">
<path id="Vector" d="M2.48599 24.7532C1.88888 24.8501 1.33918 25.1377 0.919166 25.5731C0.499151 26.0084 0.231404 26.568 0.155993 27.1682C-0.0499647 29.0355 -0.0519839 30.9196 0.149971 32.7872C0.218487 33.3965 0.483831 33.9668 0.905757 34.4116C1.32768 34.8565 1.88317 35.1516 2.48797 35.2522L5.66993 35.7731C6.28083 38.3751 7.31201 40.86 8.72286 43.1301L6.84994 45.7461C6.10361 46.7579 6.12167 48.1428 6.89396 49.135C7.49009 49.8643 8.1243 50.5616 8.79394 51.2241C9.40798 51.8391 10.0869 52.4571 10.9019 53.142C11.3811 53.5105 11.9669 53.7135 12.5714 53.7206C13.1758 53.7276 13.7662 53.5382 14.2539 53.181L16.8828 51.295C19.1505 52.7057 21.6331 53.7372 24.2327 54.349L24.7548 57.536C24.8514 58.1333 25.1389 58.6832 25.5743 59.1034C26.0097 59.5236 26.5694 59.7915 27.1698 59.8669C27.7453 59.9316 28.323 59.976 28.9017 59.9999H28.9867C29.5079 59.9995 30.009 59.7991 30.3867 59.4399C30.581 59.2542 30.7355 59.031 30.8408 58.7839C30.9462 58.5367 31.0002 58.2706 30.9996 58.0019V49.988C30.9937 48.9172 30.1485 48.0393 29.0786 47.993C19.5074 47.4933 12.003 39.587 12.003 30.0027C12.003 20.4184 19.5074 12.5121 29.0786 12.0124C30.1501 11.9654 30.9959 11.085 30.9996 10.0124V2.00252C31.0004 1.73353 30.9464 1.46721 30.8408 1.21981C30.7352 0.972404 30.5803 0.749113 30.3856 0.563566C30.1912 0.372882 29.9595 0.224574 29.7049 0.128009C29.4503 0.0314435 29.1785 -0.0112797 28.9066 0.00253737C28.3246 0.0255393 27.7476 0.0674955 27.1556 0.127518C26.5557 0.204822 25.9972 0.475062 25.5643 0.897492C25.1314 1.31992 24.8475 1.87164 24.7556 2.46946L24.2346 5.6534C21.6349 6.26564 19.1524 7.2975 16.8847 8.7084L14.2558 6.82639C13.7637 6.46658 13.1677 6.27716 12.5582 6.28691C11.9487 6.29665 11.3591 6.50503 10.8788 6.88039C10.1538 7.47388 9.45989 8.10439 8.79986 8.76941C8.11961 9.43439 7.47918 10.1389 6.88192 10.8794C6.5105 11.3592 6.30499 11.9466 6.29634 12.5534C6.28768 13.1601 6.47635 13.7532 6.83394 14.2434L8.71891 16.8754C7.30927 19.1452 6.27942 21.6298 5.66993 24.2313L2.48599 24.7532ZM7.47898 25.3112C8.06037 22.4868 9.17568 19.7994 10.765 17.3933C10.8762 17.2243 10.9336 17.0255 10.9295 16.8233C10.9254 16.621 10.86 16.4247 10.742 16.2603L8.46105 13.0754C8.35829 12.9398 8.30143 12.775 8.29873 12.6048C8.29604 12.4347 8.34764 12.2682 8.44605 12.1294C8.9942 11.45 9.58222 10.8039 10.207 10.1943C10.8139 9.58126 11.4514 8.99919 12.117 8.45035C12.2563 8.3441 12.4267 8.28656 12.602 8.28656C12.7772 8.28656 12.9476 8.3441 13.087 8.45035L16.267 10.7324C16.4315 10.8501 16.6279 10.9151 16.8302 10.9189C17.0325 10.9226 17.2312 10.8649 17.4 10.7534C19.8041 9.16347 22.4899 8.04778 25.3129 7.4664C25.5112 7.42553 25.6924 7.32545 25.8326 7.1794C25.9727 7.03334 26.0653 6.84818 26.098 6.6484L26.7269 2.79741C26.7489 2.62915 26.8244 2.47239 26.9421 2.35018C27.0598 2.22796 27.2136 2.14672 27.3809 2.11841C27.9192 2.06246 28.4592 2.02378 29 2.00242L28.9779 10.0133C18.3316 10.557 9.98017 19.3508 9.98609 30.011C9.99191 40.6712 18.353 49.4558 29 49.9878L28.9859 58.0017C28.4533 57.9796 27.9217 57.9386 27.392 57.8787C27.224 57.8542 27.0684 57.7758 26.9487 57.6553C26.829 57.5349 26.7515 57.3789 26.728 57.2107L26.098 53.3577C26.0653 53.1579 25.9727 52.9728 25.8326 52.8267C25.6924 52.6807 25.5112 52.5806 25.3129 52.5397C22.4899 51.9579 19.8041 50.8419 17.4 49.2517C17.2311 49.1403 17.0324 49.0828 16.8301 49.0868C16.6278 49.0907 16.4314 49.1559 16.267 49.2737L13.084 51.5577C12.9518 51.6606 12.7901 51.7185 12.6226 51.723C12.4551 51.7275 12.2906 51.6783 12.153 51.5827C11.418 50.9637 10.781 50.3828 10.207 49.8097C9.59385 49.2039 9.01209 48.567 8.46402 47.9017C8.359 47.7615 8.30224 47.5909 8.30224 47.4157C8.30224 47.2405 8.359 47.07 8.46402 46.9297L10.743 43.7478C10.8608 43.5833 10.926 43.387 10.93 43.1847C10.9339 42.9824 10.8764 42.7837 10.765 42.6147C9.17557 40.2091 8.06026 37.522 7.47898 34.6979C7.43816 34.4997 7.33823 34.3186 7.19236 34.1785C7.0465 34.0383 6.86157 33.9457 6.66197 33.9128L2.81197 33.2818C2.63758 33.253 2.47741 33.1679 2.3559 33.0395C2.23439 32.9111 2.15821 32.7465 2.13899 32.5708C1.9517 30.8508 1.95372 29.1155 2.14501 27.3959C2.16925 27.2277 2.24734 27.0719 2.36758 26.9518C2.48783 26.8318 2.64375 26.7539 2.81197 26.7299L6.66089 26.0999C6.86122 26.0671 7.04681 25.9741 7.19296 25.8332C7.3391 25.6923 7.43887 25.5102 7.47898 25.3112Z" fill="url(#paint0_linear_123_2679)"/>
<path id="Vector_2" d="M56.9994 27.0022C56.3811 27.0048 55.7788 27.1983 55.2747 27.5563C54.7706 27.9143 54.3895 28.4193 54.1834 29.0022H30.9997V26.0022H46.9995C48.6563 26.0022 49.9994 24.6591 49.9994 23.0023V17.8184C51.3769 17.3314 52.2032 15.9227 51.9561 14.4827C51.709 13.0427 50.4604 11.99 48.9994 11.99C47.5383 11.99 46.2897 13.0427 46.0426 14.4827C45.7955 15.9227 46.6218 17.3314 47.9993 17.8184V23.0023C47.9993 23.5545 47.5516 24.0023 46.9993 24.0023H30.9997V21.0023H41.9995C42.5517 21.0023 42.9994 20.5546 42.9994 20.0023C42.9994 19.4499 42.5517 19.0022 41.9995 19.0022H30.9997V17.0022H36.9996C38.6564 17.0022 39.9996 15.6592 39.9996 14.0022V7.81847C41.3772 7.33148 42.2034 5.92284 41.9564 4.4828C41.7093 3.04277 40.4606 1.99011 38.9996 1.99011C37.5385 1.99011 36.2899 3.04277 36.0428 4.4828C35.7957 5.92284 36.622 7.33148 37.9995 7.81847V14.0024C37.9995 14.5547 37.5518 15.0025 36.9995 15.0025H30.7356C30.5671 14.6894 30.312 14.4316 30.0007 14.2599C29.6894 14.0882 29.3353 14.01 28.9806 14.0345C20.5537 14.5683 13.9922 21.5586 13.9922 30.0023C13.9922 38.4461 20.5537 45.4364 28.9806 45.9702H29.0976C29.4328 45.973 29.7625 45.8843 30.0511 45.7138C30.3397 45.5432 30.5763 45.2972 30.7356 45.0022H36.9995C37.5517 45.0022 37.9995 45.4499 37.9995 46.0023V52.1862C36.622 52.6732 35.7957 54.0819 36.0428 55.5219C36.2899 56.9619 37.5385 58.0146 38.9996 58.0146C40.4606 58.0146 41.7093 56.9619 41.9564 55.5219C42.2034 54.0819 41.3772 52.6732 39.9996 52.1862V46.0023C39.9996 44.3454 38.6565 43.0023 36.9996 43.0023H30.9997V41.0023H41.9995C42.5517 41.0023 42.9994 40.5546 42.9994 40.0023C42.9994 39.4501 42.5517 39.0023 41.9995 39.0023H30.9997V36.0024H46.9995C47.5517 36.0024 47.9995 36.4501 47.9995 37.0023V42.1862C46.622 42.6732 45.7957 44.0819 46.0428 45.5219C46.2899 46.9619 47.5385 48.0146 48.9996 48.0146C50.4606 48.0146 51.7092 46.9619 51.9563 45.5219C52.2034 44.0819 51.3771 42.6732 49.9996 42.1862V37.0023C49.9996 35.3455 48.6565 34.0024 46.9997 34.0024H30.9997V31.0022H54.1834C54.6944 32.4368 56.2005 33.2594 57.6838 32.9141C59.167 32.5688 60.155 31.1655 59.9798 29.6527C59.8046 28.1401 58.5221 26.9996 56.9994 27.0022ZM48.9995 14.0024C49.5517 14.0024 49.9994 14.4501 49.9994 15.0025C49.9994 15.5548 49.5517 16.0025 48.9995 16.0025C48.4472 16.0025 47.9995 15.5548 47.9995 15.0025C47.9995 14.4501 48.4471 14.0024 48.9995 14.0024ZM38.9996 4.00253C39.5518 4.00253 39.9996 4.45023 39.9996 5.00257C39.9996 5.55491 39.5519 6.00251 38.9996 6.00251C38.4472 6.00251 37.9996 5.55481 37.9996 5.00257C37.9996 4.45033 38.4472 4.00253 38.9996 4.00253ZM38.9996 56.002C38.4473 56.002 37.9996 55.5543 37.9996 55.0019C37.9996 54.4496 38.4473 54.0019 38.9996 54.0019C39.5518 54.0019 39.9996 54.4496 39.9996 55.0019C39.9996 55.5543 39.5518 56.002 38.9996 56.002ZM48.9995 46.0021C48.4472 46.0021 47.9995 45.5544 47.9995 45.002C47.9995 44.4497 48.4472 44.0021 48.9995 44.0021C49.5517 44.0021 49.9994 44.4498 49.9994 45.002C49.9994 45.5543 49.5517 46.0021 48.9995 46.0021ZM15.9998 30.0023C16.0082 22.6617 21.6785 16.571 28.9997 16.0384V43.9662C21.6785 43.4335 16.0082 37.3427 15.9998 30.0023ZM56.9994 31.0022C56.4471 31.0022 55.9993 30.5545 55.9993 30.0022C55.9993 29.4498 56.447 29.0022 56.9994 29.0022C57.5517 29.0022 57.9994 29.4499 57.9994 30.0022C57.9994 30.5544 57.5516 31.0022 56.9994 31.0022Z" fill="url(#paint1_linear_123_2679)"/>
</g>
<defs>
<linearGradient id="paint0_linear_123_2679" x1="15.4998" y1="0" x2="15.4998" y2="59.9999" gradientUnits="userSpaceOnUse">
<stop stop-color="#DD1C23"/>
<stop offset="0.49" stop-color="#CA1821"/>
<stop offset="1" stop-color="#A00F15"/>
</linearGradient>
<linearGradient id="paint1_linear_123_2679" x1="36.9961" y1="1.99011" x2="36.9961" y2="58.0146" gradientUnits="userSpaceOnUse">
<stop stop-color="#DD1C23"/>
<stop offset="0.49" stop-color="#CA1821"/>
<stop offset="1" stop-color="#A00F15"/>
</linearGradient>
</defs>
</svg>
