<svg width="60" height="59" viewBox="0 0 60 59" fill="none" xmlns="http://www.w3.org/2000/svg">
<g id="Group">
<path id="Vector" d="M58.5928 56.8669H56.1063V17.8569C56.1052 17.1689 55.8312 16.5094 55.3445 16.0231C54.8578 15.5368 54.1981 15.2634 53.5101 15.2628H48.2432C47.5555 15.2639 46.8964 15.5376 46.4101 16.0238C45.9239 16.5101 45.6502 17.1692 45.6491 17.8569V56.8669H42.0739V36.3807C42.073 35.6929 41.7995 35.0335 41.3132 34.547C40.827 34.0605 40.1676 33.7867 39.4798 33.7856H34.2107C33.5227 33.7867 32.8632 34.0607 32.3769 34.5474C31.8906 35.0341 31.6172 35.6938 31.6167 36.3818V56.868H28.0414V28.8915C28.0406 28.2037 27.7671 27.5442 27.2808 27.0578C26.7945 26.5713 26.1352 26.2975 25.4474 26.2964H20.1772C19.4892 26.2975 18.8297 26.5715 18.3434 27.0582C17.8571 27.5449 17.5837 28.2046 17.5832 28.8926V56.8669H14.009V44.5997C14.0084 43.9117 13.735 43.252 13.2487 42.7653C12.7624 42.2786 12.103 42.0046 11.4149 42.0035H6.14692C5.45854 42.0041 4.79851 42.2778 4.31175 42.7645C3.825 43.2513 3.55129 43.9113 3.55072 44.5997V56.8669H1.06532C0.782782 56.8669 0.511813 56.9791 0.312026 57.1789C0.112239 57.3787 0 57.6497 0 57.9322C0 58.2148 0.112239 58.4857 0.312026 58.6855C0.511813 58.8853 0.782782 58.9975 1.06532 58.9975C9.02329 58.9997 56.3087 59.0018 58.5928 58.9975C58.8753 58.9975 59.1463 58.8853 59.3461 58.6855C59.5459 58.4857 59.6581 58.2148 59.6581 57.9322C59.6581 57.6497 59.5459 57.3787 59.3461 57.1789C59.1463 56.9791 58.8753 56.8669 58.5928 56.8669ZM5.68244 56.8669V44.5997C5.68272 44.4763 5.73186 44.3581 5.8191 44.2708C5.90635 44.1836 6.0246 44.1344 6.14798 44.1341H11.4149C11.538 44.1347 11.6559 44.184 11.7428 44.2713C11.8296 44.3585 11.8784 44.4766 11.8784 44.5997V56.8669H5.68244ZM19.7149 56.8669V28.8936C19.7149 28.7705 19.7636 28.6524 19.8505 28.5652C19.9373 28.4779 20.0552 28.4286 20.1783 28.4281H25.4474C25.5705 28.4286 25.6883 28.4779 25.7752 28.5652C25.862 28.6524 25.9108 28.7705 25.9108 28.8936V56.8669H19.7149ZM33.7473 56.8669V36.3807C33.7476 36.2578 33.7965 36.14 33.8833 36.053C33.9701 35.966 34.0878 35.9168 34.2107 35.9162H39.4798C39.6029 35.9168 39.7208 35.9661 39.8076 36.0533C39.8945 36.1406 39.9432 36.2587 39.9432 36.3818V56.868L33.7473 56.8669ZM47.7798 56.8669V17.8569C47.78 17.7341 47.829 17.6164 47.9158 17.5295C48.0026 17.4427 48.1204 17.3937 48.2432 17.3935H53.5112C53.6341 17.3937 53.7519 17.4426 53.839 17.5294C53.926 17.6163 53.9751 17.734 53.9757 17.8569V56.8669H47.7798Z" fill="url(#paint0_linear_123_2585)"/>
<path id="Vector_2" d="M8.65104 26.746C9.33649 26.7415 10.0095 26.5622 10.6062 26.2249C11.203 25.8876 11.7038 25.4036 12.0611 24.8187C12.4185 24.2337 12.6207 23.5673 12.6484 22.8824C12.6762 22.1975 12.5287 21.5168 12.2199 20.9048L20.5379 13.3304C21.344 13.8386 22.3048 14.0432 23.248 13.9075C24.1912 13.7719 25.0554 13.3048 25.6856 12.59L32.7678 16.0619C32.6483 16.6879 32.6795 17.3335 32.859 17.9451C33.0385 18.5567 33.361 19.1167 33.7999 19.5789C34.2388 20.0411 34.7814 20.3921 35.3829 20.603C35.9844 20.8138 36.6275 20.8784 37.2589 20.7913C37.8903 20.7043 38.4919 20.4681 39.0139 20.1024C39.5359 19.7367 39.9634 19.252 40.2609 18.6883C40.5583 18.1246 40.7173 17.4981 40.7246 16.8608C40.7319 16.2235 40.5873 15.5936 40.3029 15.0232L48.8361 7.40079C49.6533 7.93124 50.6353 8.14723 51.5996 8.0087C52.564 7.87017 53.4454 7.38651 54.0803 6.64747C54.7152 5.90843 55.0604 4.96419 55.052 3.98993C55.0436 3.01568 54.682 2.07755 54.0344 1.34963C53.3868 0.6217 52.4972 0.153389 51.5305 0.0315857C50.5639 -0.0902177 49.5859 0.142756 48.7779 0.68728C47.97 1.2318 47.387 2.05091 47.1372 2.99262C46.8873 3.93433 46.9875 4.9347 47.4192 5.80814L38.8881 13.4305C38.0813 12.9142 37.1165 12.7033 36.1678 12.836C35.2191 12.9686 34.3492 13.4361 33.7149 14.1539L26.6305 10.6809C26.7503 10.0535 26.7186 9.40652 26.5381 8.79378C26.3576 8.18104 26.0334 7.62024 25.5926 7.15796C25.1518 6.69568 24.607 6.34527 24.0035 6.13587C23.4 5.92646 22.7553 5.8641 22.1229 5.95396C21.4905 6.04382 20.8886 6.2833 20.3674 6.65252C19.8461 7.02174 19.4205 7.51002 19.1259 8.0768C18.8313 8.64358 18.6762 9.27248 18.6735 9.91125C18.6708 10.55 18.8206 11.1802 19.1104 11.7494L10.7881 19.3282C10.2609 18.9958 9.6636 18.7907 9.04346 18.729C8.42333 18.6672 7.79734 18.7506 7.21496 18.9724C6.63258 19.1942 6.10978 19.5485 5.68787 20.0072C5.26597 20.4658 4.95653 21.0163 4.784 21.6152C4.61148 22.214 4.5806 22.8448 4.69382 23.4576C4.80703 24.0704 5.06123 24.6485 5.43632 25.1462C5.81141 25.6439 6.29712 26.0475 6.85505 26.3252C7.41298 26.6028 8.02784 26.7469 8.65104 26.746ZM51.0072 2.13064C51.5014 2.14237 51.9714 2.34691 52.3167 2.70055C52.6621 3.05419 52.8554 3.52889 52.8554 4.02319C52.8554 4.51749 52.6621 4.99218 52.3167 5.34582C51.9714 5.69947 51.5014 5.90401 51.0072 5.91573C50.5131 5.90401 50.0431 5.69947 49.6977 5.34582C49.3524 4.99218 49.1591 4.51749 49.1591 4.02319C49.1591 3.52889 49.3524 3.05419 49.6977 2.70055C50.0431 2.34691 50.5131 2.14237 51.0072 2.13064ZM36.717 14.9145C37.2111 14.9262 37.6811 15.1308 38.0265 15.4844C38.3718 15.8381 38.5652 16.3128 38.5652 16.8071C38.5652 17.3014 38.3718 17.7761 38.0265 18.1297C37.6811 18.4834 37.2111 18.6879 36.717 18.6996C36.2228 18.6879 35.7529 18.4834 35.4075 18.1297C35.0621 17.7761 34.8688 17.3014 34.8688 16.8071C34.8688 16.3128 35.0621 15.8381 35.4075 15.4844C35.7529 15.1308 36.2228 14.9262 36.717 14.9145ZM22.6845 8.04638C23.1787 8.05811 23.6487 8.26265 23.994 8.61629C24.3394 8.96993 24.5327 9.44463 24.5327 9.93893C24.5327 10.4332 24.3394 10.9079 23.994 11.2616C23.6487 11.6152 23.1787 11.8197 22.6845 11.8315C22.1904 11.8197 21.7204 11.6152 21.3751 11.2616C21.0297 10.9079 20.8364 10.4332 20.8364 9.93893C20.8364 9.44463 21.0297 8.96993 21.3751 8.61629C21.7204 8.26265 22.1904 8.05811 22.6845 8.04638ZM8.6521 20.8303C9.14627 20.842 9.61624 21.0465 9.96159 21.4002C10.3069 21.7538 10.5003 22.2285 10.5003 22.7228C10.5003 23.2171 10.3069 23.6918 9.96159 24.0454C9.61624 24.3991 9.14627 24.6036 8.6521 24.6154C8.15794 24.6036 7.68797 24.3991 7.34262 24.0454C6.99726 23.6918 6.80393 23.2171 6.80393 22.7228C6.80393 22.2285 6.99726 21.7538 7.34262 21.4002C7.68797 21.0465 8.15794 20.842 8.6521 20.8303Z" fill="url(#paint1_linear_123_2585)"/>
</g>
<defs>
<linearGradient id="paint0_linear_123_2585" x1="29.8291" y1="15.2628" x2="29.8291" y2="59" gradientUnits="userSpaceOnUse">
<stop stop-color="#DD1C23"/>
<stop offset="0.51" stop-color="#CA1821"/>
<stop offset="1" stop-color="#A00F15"/>
</linearGradient>
<linearGradient id="paint1_linear_123_2585" x1="29.8396" y1="0" x2="29.8396" y2="26.746" gradientUnits="userSpaceOnUse">
<stop stop-color="#DD1C23"/>
<stop offset="0.51" stop-color="#CA1821"/>
<stop offset="1" stop-color="#A00F15"/>
</linearGradient>
</defs>
</svg>
